# AST/ASF file generated using VICON BodyLanguage
# -----------------------------------------------
:version 1.10
:name VICON
:units
  mass 1.0
  length 0.45
  angle deg
:documentation
   .ast/.asf automatically generated from VICON data using
   VICON BodyBuilder and BodyLanguage model FoxedUp or BRILLIANT.MOD
:root
   order TX TY TZ RX RY RZ
   axis XYZ
   position 0 0 0  
   orientation 0 0 0 
:bonedata
  begin
     id 1 
     name lhipjoint
     direction 0.624716 -0.669793 0.401383 
     length 2.38238 
     axis 0 0 0  XYZ
  end
  begin
     id 2 
     name lfemur
     direction 0.34202 -0.939693 0  
     length 6.4574  
     axis 0 0 20  XYZ
    dof rx ry rz
    limits (-160.0 20.0)
           (-70.0 70.0)
           (-60.0 70.0)
  end
  begin
     id 3 
     name ltibia
     direction 0.34202 -0.939693 0   
     length 7.68739   
     axis 0 0 20   XYZ
    dof rx
    limits (-10.0 170.0)
  end
  begin
     id 4 
     name lfoot
     direction 0.0681309 -0.187188 0.979959   
     length 2.46615   
     axis -90 7.62852e-016 20   XYZ
    dof rx rz
    limits (-45.0 90.0)
           (-70.0 20.0)
  end
  begin
     id 5 
     name ltoes
     direction 1.53566e-011 -4.21819e-011 1   
     length 1.2376   
     axis -90 7.62852e-016 20   XYZ
    dof rx
    limits (-90.0 20.0)
  end
  begin
     id 6 
     name rhipjoint
     direction -0.644473 -0.655875 0.393043   
     length 2.43293  
     axis 0 0 0  XYZ 
  end
  begin
     id 7 
     name rfemur
     direction -0.34202 -0.939693 0   
     length 6.7025   
     axis 0 0 -20   XYZ
    dof rx ry rz
    limits (-160.0 20.0)
           (-70.0 70.0)
           (-70.0 60.0)
  end
  begin
     id 8 
     name rtibia
     direction -0.34202 -0.939693 0   
     length 7.80547   
     axis 0 0 -20   XYZ
    dof rx
    limits (-10.0 170.0)
 end
 begin
     id 9 
     name rfoot
     direction -0.0756734 -0.207911 0.975216   
     length 2.40315  
     axis -90 -7.62852e-016 -20   XYZ
    dof rx rz
    limits (-45.0 90.0)
           (-20.0 70.0)
  end
  begin
     id 10 
     name rtoes
     direction -1.5353e-011 -4.21879e-011 1   
     length 1.20477   
     axis -90 -7.62852e-016 -20   XYZ
    dof rx
    limits (-90.0 20.0)
  end
  begin
     id 11 
     name lowerback
     direction 0.0160353 0.987463 -0.157037   
     length 2.18572   
     axis 0 0 0   XYZ
    dof rx ry rz
    limits (-20.0 45.0)
           (-30.0 30.0)
           (-30.0 30.0)
  end
  begin
     id 12 
     name upperback
     direction -0.00499661 0.999756 0.0215076   
     length 2.18016   
     axis 0 0 0   XYZ
    dof rx ry rz
    limits (-20.0 45.0)
           (-30.0 30.0)
           (-30.0 30.0)
  end
  begin
     id 13 
     name thorax
     direction -0.00921346 0.995333 0.0960619   
     length 2.24923   
     axis 0 0 0   XYZ
    dof rx ry rz
    limits (-20.0 45.0)
           (-30.0 30.0)
           (-30.0 30.0)
  end
  begin
     id 14 
     name lowerneck
     direction 0.0274184 0.991181 0.12965   
     length 1.70911   
     axis 0 0 0   XYZ
    dof rx ry rz
    limits (-20.0 45.0)
           (-30.0 30.0)
           (-30.0 30.0)
  end
  begin
     id 15 
     name upperneck
     direction 0.0015627 0.999959 -0.00893559   
     length 1.69312   
     axis 0 0 0   XYZ
    dof rx ry rz
    limits (-20.0 45.0)
           (-30.0 30.0)
           (-30.0 30.0)
  end
  begin
     id 16
     name head
     direction -0.00230242 0.999856 -0.0168327  
     length 1.80241  
     axis 0 0 0   XYZ
    dof rx ry rz
    limits (-20.0 45.0)
           (-30.0 30.0)
           (-30.0 30.0)
  end
  begin
     id 17 
     name lclavicle
     direction 0.955523 0.290741 -0.0494489  
     length 3.84275  
     axis 0 0 0   XYZ
    dof ry rz
    limits (-20.0 10.0)
           (0.0 20.0)
  end
  begin
     id 18 
     name lhumerus
     direction 1 -4.48967e-011 -3.18382e-028   
     length 5.17714   
     axis 180 -30 -90   XYZ
    dof rx ry rz
    limits (-60.0 90.0)
           (-90.0 90.0)
           (-90.0 90.0)
  end
  begin
     id 19
     name lradius
     direction 1 -4.48968e-011 -2.22911e-027   
     length 3.43679   
     axis 180 -30 -90   XYZ
    dof rx
    limits (-10.0 170.0)
  end
  begin
     id 20
     name lwrist
     direction 1 -4.48951e-011 -6.32245e-027   
     length 1.7184   
     axis 3.57107e-015 90 90   XYZ
    dof ry
    limits (-180.0 0.0)
 end
  begin
     id 21 
     name lhand
     direction 1 -4.48924e-011 -1.26431e-026   
     length 0.573117   
     axis 8.06912e-015 90 90   XYZ
    dof rx rz
    limits (-90.0 90.0)
           (-45.0 45.0)
  end
  begin
     id 22 
     name lfingers
     direction 1 -4.49001e-011 -2.52965e-026   
     length 0.462062   
     axis 1.61381e-014 90 90   XYZ
    dof rx
    limits (0.0 90.0)
  end
  begin
     id 23
     name lthumb
     direction 0.707107 -6.35008e-011 0.707107   
     length 0.663431   
     axis -90 45 -1.62303e-014   XYZ
    dof rx rz
    limits (-45.0 45.0)
           (-45.0 45.0)
  end
  begin
     id 24 
     name rclavicle
     direction -0.963917 0.256881 -0.0698287   
     length 3.73057  
     axis 0 0 0   XYZ 
    dof ry rz
    limits (-10.0 20.0)
           (-20.0 0.0)
  end
  begin
     id 25 
     name rhumerus
     direction -1 -4.48962e-011 -2.73982e-027  
     length 5.23908   
     axis 180 30 90   XYZ
    dof rx ry rz
    limits (-90.0 60.0)
           (-90.0 90.0)
           (-90.0 90.0)
  end
  begin
     id 26 
     name rradius
     direction -1 -4.48968e-011 -4.33218e-027   
     length 3.46485   
     axis 180 30 90   XYZ
    dof rx
    limits (-10.0 170.0)
  end
  begin
     id 27 
     name rwrist
     direction -1 -4.48989e-011 -6.32372e-027   
     length 1.73243   
     axis 3.57107e-015 -90 -90   XYZ
    dof ry
    limits (-180.0 0.0)
  end
  begin
     id 28
     name rhand
     direction -1 -4.48948e-011 -1.26448e-026   
     length 0.608752   
     axis 8.06912e-015 -90 -90   XYZ
    dof rx rz
    limits (-90.0 90.0)
           (-45.0 45.0)
  end
  begin
     id 29
     name rfingers
     direction -1 -4.48962e-011 -2.52913e-026   
     length 0.490792   
     axis 1.61381e-014 -90 -90   XYZ
    dof rx
    limits (0.0 90.0)
  end
  begin
     id 30
     name rthumb
     direction -0.707107 -6.34878e-011 0.707107   
     length 0.704682   
     axis -90 -45 1.62303e-014   XYZ
    dof rx rz
    limits (-45.0 45.0)
           (-45.0 45.0)
  end
:hierarchy
  begin
    root lhipjoint rhipjoint lowerback
    lhipjoint lfemur
    lfemur ltibia
    ltibia lfoot
    lfoot ltoes
    rhipjoint rfemur
    rfemur rtibia
    rtibia rfoot
    rfoot rtoes
    lowerback upperback
    upperback thorax
    thorax lowerneck lclavicle rclavicle
    lowerneck upperneck
    upperneck head
    lclavicle lhumerus
    lhumerus lradius
    lradius lwrist
    lwrist lhand lthumb
    lhand lfingers
    rclavicle rhumerus
    rhumerus rradius
    rradius rwrist
    rwrist rhand rthumb
    rhand rfingers
  end

#!OML:ASF G:\JayActor3\Patient Classification 1\Patient 1\Session 6\male.ASF
:FULLY-SPECIFIED
:DEGREES
96
root 49.3256 16.2755 16.6843 177.384 -46.183 -176.411
lowerback 1.85705 -0.523579 3.07726
upperback 4.20979 -0.840226 0.115336
thorax 3.25191 -0.380076 -1.61588
lowerneck -8.27603 1.16503 3.26724
upperneck 15.7311 1.08134 -1.5482
head 6.15854 0.484075 -0.95928
rclavicle -8.85337e-014 1.07344e-014
rhumerus -25.9327 -3.05127 -86.2042
rradius 28.5656
rwrist 1.28862
rhand -18.8577 -6.38887
rfingers 7.12502
rthumb 7.44246 -36.238
lclavicle -8.85337e-014 1.07344e-014
lhumerus -24.9705 -2.94974 84.9513
lradius 25.7832
lwrist 16.7823
lhand -16.8588 12.4158
lfingers 7.12502
lthumb 9.37156 42.1875
rfemur -8.414 1.62016 23.5548
rtibia 28.8285
rfoot -21.9258 -14.8012
rtoes 3.95843
lfemur -0.0770608 5.3052 -15.1528
ltibia 14.2023
lfoot -12.209 4.57265
ltoes -6.17158
97
root 49.3325 16.2735 16.693 177.348 -46.1694 -176.439
lowerback 2.02771 -0.517767 3.05148
upperback 4.27972 -0.832801 0.0986736
thorax 3.22889 -0.37894 -1.61708
lowerneck -8.18378 1.05599 3.18484
upperneck 15.5315 0.929507 -1.39935
head 6.07466 0.419067 -0.909625
rclavicle 3.77691e-015 -8.74653e-015
rhumerus -25.9223 -2.86683 -86.2363
rradius 28.7669
rwrist 1.22515
rhand -18.8237 -6.40356
rfingers 7.12502
rthumb 7.47535 -36.2515
lclavicle 3.77691e-015 -8.74653e-015
lhumerus -24.8948 -3.11263 84.9277
lradius 25.9555
lwrist 16.8777
lhand -16.8777 12.4274
lfingers 7.12502
lthumb 9.35337 42.1998
rfemur -8.44401 1.55853 23.5207
rtibia 28.9147
rfoot -21.8996 -14.7467
rtoes 3.96864
lfemur -0.147518 5.27643 -15.1759
ltibia 14.362
lfoot -12.2503 4.56515
ltoes -5.86786
98
root 49.3406 16.2709 16.7029 177.299 -46.1528 -176.46
lowerback 2.21818 -0.510389 3.02722
upperback 4.3649 -0.824347 0.0855534
thorax 3.21074 -0.377627 -1.61541
lowerneck -8.09942 0.951814 3.10134
upperneck 15.3216 0.786305 -1.25639
head 5.98959 0.357684 -0.860825
rclavicle 4.69877e-014 -3.18055e-015
rhumerus -25.8972 -2.64709 -86.2778
rradius 28.9956
rwrist 1.10408
rhand -18.8375 -6.42221
rfingers 7.12502
rthumb 7.46196 -36.2706
lclavicle 4.69877e-014 -3.18055e-015
lhumerus -24.8004 -3.30916 84.908
lradius 26.1556
lwrist 17.0172
lhand -16.9316 12.4223
lfingers 7.12502
lthumb 9.3013 42.1972
rfemur -8.48352 1.50406 23.4937
rtibia 29.0193
rfoot -21.8789 -14.6966
rtoes 3.97887
lfemur -0.224515 5.23829 -15.188
ltibia 14.5306
lfoot -12.2987 4.53313
ltoes -5.32912
99
root 49.3495 16.2678 16.7136 177.243 -46.1306 -176.479
lowerback 2.42572 -0.500699 3.00311
upperback 4.46522 -0.813996 0.0753596
thorax 3.19894 -0.375738 -1.61078
lowerneck -8.02836 0.85351 3.02381
upperneck 15.1063 0.65336 -1.12902
head 5.90587 0.300407 -0.817009
rclavicle -1.09754e-013 2.90226e-014
rhumerus -25.8618 -2.39721 -86.3244
rradius 29.2557
rwrist 0.944128
rhand -18.8662 -6.43071
rfingers 7.12502
rthumb 7.43432 -36.2801
lclavicle -1.09754e-013 2.90226e-014
lhumerus -24.6929 -3.53484 84.8911
lradius 26.3889
lwrist 17.1951
lhand -16.9794 12.4213
lfingers 7.12502
lthumb 9.25518 42.1982
rfemur -8.53069 1.4519 23.4683
rtibia 29.1427
rfoot -21.87 -14.6376
rtoes 4.02431
lfemur -0.309743 5.22193 -15.1958
ltibia 14.7207
lfoot -12.3522 4.48588
ltoes -4.78746
100
root 49.3595 16.2644 16.7255 177.187 -46.1043 -176.498
lowerback 2.64598 -0.487974 2.98122
upperback 4.57718 -0.800569 0.0644935
thorax 3.19231 -0.372521 -1.6081
lowerneck -7.95279 0.756824 2.95142
upperneck 14.8722 0.525189 -1.01463
head 5.81603 0.24475 -0.77763
rclavicle -3.61291e-014 -3.97569e-015
rhumerus -25.8223 -2.12079 -86.3775
rradius 29.5549
rwrist 0.75766
rhand -18.8994 -6.45407
rfingers 7.12502
rthumb 7.40223 -36.3046
lclavicle -3.61291e-014 -3.97569e-015
lhumerus -24.5893 -3.78216 84.8733
lradius 26.667
lwrist 17.3903
lhand -17 12.423
lfingers 7.12502
lthumb 9.23531 42.2007
rfemur -8.59607 1.40415 23.4438
rtibia 29.2859
rfoot -21.8726 -14.573
rtoes 4.10644
lfemur -0.419792 5.22051 -15.2018
ltibia 14.945
lfoot -12.4151 4.42534
ltoes -4.20447
